<?xml version="1.0" encoding="UTF-8"?>
<svg version="1.1" xmlns="http://www.w3.org/2000/svg" width="1280" height="1280">
<path d="M0 0 C0.87156738 0.27956543 1.74313477 0.55913086 2.64111328 0.84716797 C60.65112739 19.64254421 107.00651168 55.7043088 149.41451454 98.33934975 C151.86275404 100.80058295 154.31430617 103.25847594 156.76664734 105.71562195 C161.95146326 110.91172897 167.13225682 116.11183473 172.3125 121.3125 C178.36606136 127.38969831 184.42127919 133.46522799 190.48067284 139.53661156 C192.89690692 141.95932943 195.31011671 144.38503245 197.72322083 146.81086731 C199.19074109 148.28201654 200.65839993 149.75302755 202.1262207 151.22387695 C203.13204445 152.23745018 203.13204445 152.23745018 204.15818787 153.27149963 C204.77032135 153.88370361 205.38245483 154.49590759 206.01313782 155.12666321 C206.54488774 155.66063375 207.07663767 156.19460428 207.62450123 156.74475574 C208.99768743 158.11241773 208.99768743 158.11241773 211 159 C211.31130859 157.82244141 211.31130859 157.82244141 211.62890625 156.62109375 C213.48746306 151.71259755 216.15302646 147.49692818 218.9375 143.0625 C219.80930908 141.66632446 219.80930908 141.66632446 220.69873047 140.24194336 C225.77147023 132.20376159 231.20149604 124.52607563 237 117 C237.45616699 116.40106934 237.91233398 115.80213867 238.38232422 115.18505859 C243.87953212 107.97538481 249.57373715 101.0831672 255.74609375 94.4375 C257.65642781 92.37155814 259.4932997 90.27049421 261.3125 88.125 C268.90184795 79.42850012 277.16885569 71.37996487 286.22265625 64.22265625 C288.66700596 62.2664889 291.02561426 60.23916151 293.37670898 58.17285156 C339.59720249 17.88807293 401.58237253 -6.48699214 462 -14 C463.20100342 -14.1544458 463.20100342 -14.1544458 464.42626953 -14.31201172 C549.59359466 -24.77811865 638.19151833 -0.96985453 706.1875 51.3125 C708.13765586 52.85917534 710.075461 54.42156338 712 56 C712.52561523 56.43086914 713.05123047 56.86173828 713.59277344 57.30566406 C729.74892722 70.61129456 745.92955779 84.86047828 758.90625 101.34765625 C761.13671932 104.17319481 763.46926946 106.89246692 765.8125 109.625 C804.9104868 156.62705512 828.09477684 215.74243647 836 276 C836.11859375 276.90266602 836.2371875 277.80533203 836.359375 278.73535156 C847.02586189 364.79739314 821.71176354 453.5059757 769 522 C765.46334667 526.4487801 761.76365811 530.74265217 758 535 C757.2884375 535.81082031 756.576875 536.62164063 755.84375 537.45703125 C743.45471793 551.39469232 730.42875473 564.71676457 717.22265625 577.875 C715.67445636 579.42132808 714.12648209 580.96788207 712.57872009 582.51464844 C708.56160738 586.52799593 704.54149832 590.53832816 700.52069092 594.54797363 C696.39539223 598.66292706 692.27302656 602.78081665 688.15039062 606.8984375 C680.10307877 614.9351182 672.05258866 622.96860679 664 631 C667.0380045 634.23185867 670.6039535 636.1587193 674.4375 638.3125 C693.72086635 649.42957862 711.47274598 662.98949921 727.8515625 678.03515625 C729.82501082 679.83996444 731.83863832 681.57951465 733.875 683.3125 C742.17439722 690.55132516 749.97255821 698.5249052 757 707 C757.44923828 707.53544434 757.89847656 708.07088867 758.36132812 708.62255859 C816.30532958 777.83344922 844.70314053 866.37351495 837.0546875 956.47460938 C830.71086046 1021.43704602 806.51236992 1084.39778767 765 1135 C764.50902832 1135.60134766 764.01805664 1136.20269531 763.51220703 1136.82226562 C751.14513347 1151.90010609 737.79033312 1166.27683344 723 1179 C722.05398926 1179.81404297 722.05398926 1179.81404297 721.08886719 1180.64453125 C660.8817109 1232.02795619 584.13185122 1260.17776354 505 1260.25 C504.22330963 1260.25100708 503.44661926 1260.25201416 502.64639282 1260.25305176 C421.06748722 1260.18237117 340.64348338 1229.77570325 280.54782104 1174.34371948 C278.88320599 1172.81245388 277.20979501 1171.29068067 275.52664185 1169.77981567 C267.03996579 1162.12137649 258.96312827 1154.0810299 250.90267563 1145.97784042 C248.44204188 1143.50427842 245.97815306 1141.03399879 243.51345825 1138.56448364 C238.29779261 1133.3374895 233.08612249 1128.10652297 227.875 1122.875 C221.79786701 1116.77425031 215.71909917 1110.67514769 209.63614273 1104.58020401 C207.206623 1102.14419495 204.78012641 1099.70520151 202.35372925 1097.26608276 C200.87642835 1095.7851524 199.39898859 1094.30436054 197.92138672 1092.82373047 C197.24612442 1092.14330185 196.57086212 1091.46287323 195.87513733 1090.76182556 C195.25866837 1090.1452861 194.6421994 1089.52874664 194.00704956 1088.89352417 C193.47140318 1088.35565718 192.9357568 1087.81779018 192.38387871 1087.26362419 C191.00414994 1085.88838519 191.00414994 1085.88838519 189 1085 C188.61714844 1086.03447266 188.61714844 1086.03447266 188.2265625 1087.08984375 C179.84039258 1106.98696666 164.92708128 1127.08327134 150.16015625 1142.69921875 C148.37287202 1144.60285421 146.67700047 1146.54040877 144.98046875 1148.5234375 C140.4802688 1153.68442631 135.66200271 1158.52405341 130.82226562 1163.36303711 C129.26139673 1164.92608734 127.70872112 1166.49697365 126.15625 1168.06835938 C119.76357756 1174.49678927 113.12814706 1180.38045168 106 1186 C104.86536296 1186.92876507 103.73223806 1187.85938504 102.6015625 1188.79296875 C66.25803397 1218.0299543 23.95645608 1238.11276882 -21 1250 C-21.89332031 1250.23702637 -22.78664063 1250.47405273 -23.70703125 1250.71826172 C-107.77681199 1272.52969928 -199.56678062 1257.66850078 -274.265625 1214.4375 C-305.12462787 1196.19980858 -335.14877738 1171.7343677 -358 1144 C-358.44633789 1143.46745605 -358.89267578 1142.93491211 -359.35253906 1142.38623047 C-372.36580618 1126.84422063 -383.79296215 1110.51135791 -394 1093 C-394.45761719 1092.21786133 -394.91523438 1091.43572266 -395.38671875 1090.62988281 C-438.39923733 1016.50256613 -448.9134996 925.38940538 -428.15478516 842.63037109 C-426.30881649 835.6866159 -424.22012362 828.83237821 -422 822 C-421.72043457 821.12843262 -421.44086914 820.25686523 -421.15283203 819.35888672 C-416.98307955 806.48937044 -411.80757652 794.21000558 -406 782 C-405.42209717 780.77047607 -405.42209717 780.77047607 -404.83251953 779.51611328 C-393.23467634 754.97273916 -378.3964381 732.14952576 -360.47821045 711.74816895 C-359.43549136 710.51502306 -358.42757259 709.25203778 -357.44610596 707.96960449 C-349.33073609 697.53208365 -339.7091583 688.47984318 -330.34375 679.18359375 C-328.4297397 677.2770953 -326.51740926 675.36891564 -324.60510254 673.46070862 C-320.10904252 668.97595114 -315.60831939 664.49590817 -311.10546732 660.0179711 C-303.01967122 651.97681838 -294.93975167 643.92976972 -286.86488962 635.87763745 C-283.57807876 632.6005814 -280.28679327 629.3280601 -276.99450684 626.0565033 C-275.28463644 624.35345604 -273.57487299 622.65030142 -271.86523438 620.94702148 C-270.68559113 619.77748428 -270.68559113 619.77748428 -269.4821167 618.58432007 C-268.77013123 617.87385025 -268.05814575 617.16338043 -267.32458496 616.43138123 C-266.39221134 615.50428675 -266.39221134 615.50428675 -265.44100189 614.5584631 C-263.9051974 613.04278055 -263.9051974 613.04278055 -263 611 C-264.17755859 610.68869141 -264.17755859 610.68869141 -265.37890625 610.37109375 C-270.28740245 608.51253694 -274.50307182 605.84697354 -278.9375 603.0625 C-280.33367554 602.19069092 -280.33367554 602.19069092 -281.75805664 601.30126953 C-289.79663522 596.22827935 -297.47160029 590.79594043 -305 585 C-305.59361328 584.54915039 -306.18722656 584.09830078 -306.79882812 583.63378906 C-314.25659526 577.96604694 -321.34874362 572.03775446 -328.18359375 565.6328125 C-330.859536 563.13130754 -333.57615385 560.68505917 -336.3125 558.25 C-342.22274385 552.93455705 -347.76272699 547.42671221 -352.94140625 541.39453125 C-354.49581332 539.58646382 -356.06954755 537.79498692 -357.65234375 536.01171875 C-403.03806715 484.5552935 -430.26550799 418.01157925 -437 350 C-437.14248169 348.56599854 -437.14248169 348.56599854 -437.2878418 347.10302734 C-438.12584673 337.61159723 -438.20125896 328.14573318 -438.1875 318.625 C-438.18656342 317.78485352 -438.18562683 316.94470703 -438.18466187 316.07910156 C-438.15225847 302.62993698 -437.81000838 289.34520289 -436 276 C-435.84934082 274.88351074 -435.69868164 273.76702148 -435.54345703 272.61669922 C-426.89452725 211.01072965 -402.20056465 152.65497399 -362 105 C-361.20078125 104.01515625 -360.4015625 103.0303125 -359.578125 102.015625 C-352.97536673 93.97668396 -345.76965363 86.55533967 -338.4375 79.1875 C-337.95480652 78.69963013 -337.47211304 78.21176025 -336.97479248 77.70910645 C-330.33066452 71.00886587 -323.39187304 64.86687713 -316 59 C-314.75664101 57.97565132 -313.51542421 56.9486911 -312.27734375 55.91796875 C-297.87466906 44.08009596 -282.2567093 34.0913631 -266 25 C-265.22382324 24.56333008 -264.44764648 24.12666016 -263.64794922 23.67675781 C-184.31170101 -20.55284233 -85.99285703 -27.94265288 0 0 Z M-272.53125 129.71875 C-274.58044082 131.61230608 -276.6674028 133.4059786 -278.8125 135.1875 C-290.77148313 145.65771176 -300.73959702 158.1504286 -310 171 C-310.74564209 172.02504639 -310.74564209 172.02504639 -311.50634766 173.07080078 C-350.21609822 226.83080033 -363.73660092 294.6470117 -353.78515625 359.58129883 C-343.74635872 420.24446634 -310.08116629 478.53804859 -261 516 C-260.47422363 516.40750488 -259.94844727 516.81500977 -259.40673828 517.23486328 C-226.35809429 542.75198098 -188.18300922 559.93127454 -147 567 C-146.10345703 567.16081055 -145.20691406 567.32162109 -144.28320312 567.48730469 C-81.08179117 578.42687813 -13.2123435 562.62233988 39.0625 525.8125 C48.32318737 519.16985734 57.01309396 512.10677683 65.3984375 504.3828125 C68.2008232 501.81606283 71.05915063 499.32581449 73.953125 496.86328125 C75.78904343 495.19203489 77.50872921 493.46332736 79.2421875 491.6875 C90.14233991 480.73683046 103.43323151 472.24886189 117 465 C117.59925293 464.67837891 118.19850586 464.35675781 118.81591797 464.02539062 C140.72236281 452.51054318 166.25981737 445.74479607 191 445 C191.63615234 444.97953613 192.27230469 444.95907227 192.92773438 444.93798828 C240.80125695 443.60326565 286.40859551 460.03169799 321.55126953 492.69628906 C356.73253736 526.10633808 373.35547616 569.23755594 377 617 C378.87171875 616.37544922 378.87171875 616.37544922 380.78125 615.73828125 C381.60753906 615.46322754 382.43382812 615.18817383 383.28515625 614.90478516 C385.08528724 614.30484942 386.88477566 613.70298197 388.68359375 613.09912109 C408.31507442 606.53579121 428.15081755 600.78899373 448.69702148 597.9362793 C452.78096384 597.42498177 452.78096384 597.42498177 456 595 C453.99794714 588.3860263 451.98904887 581.77415757 449.97583008 575.16357422 C449.29464058 572.92412169 448.61490331 570.6842268 447.93676758 568.44384766 C439.42326436 539.9328432 439.42326436 539.9328432 427.875 512.5625 C427.32150879 511.42852783 426.76801758 510.29455566 426.19775391 509.1262207 C418.48191626 493.60629593 409.5118363 479.10266862 398.45110679 465.75373504 C397.14399283 464.17402252 395.84287694 462.58935159 394.54251289 461.00407815 C387.6077616 452.65851043 380.21071484 444.92737917 372.52685547 437.27288818 C371.19659456 435.94031732 369.86676904 434.60731171 368.53733635 433.27391458 C364.91658059 429.64487586 361.28969478 426.02202043 357.66168499 422.40023565 C353.73710071 418.4802016 349.81830698 414.55438575 345.89874268 410.6293335 C338.23323746 402.95496045 330.56236612 395.28597315 322.88952208 387.61893818 C316.65193219 381.38587442 310.41630853 375.15084992 304.18206787 368.91443634 C302.8485679 367.58047667 302.8485679 367.58047667 301.48812854 366.21956833 C299.68189 364.41269031 297.87565594 362.60580781 296.0694263 360.7989209 C279.63628138 344.36024269 263.19751213 327.9272003 246.75635597 311.49653577 C231.76561015 296.51528331 216.78004719 281.528865 201.79882812 266.53808594 C184.94185269 249.67038932 168.08161709 232.80596222 151.21621132 215.94669366 C149.41678074 214.14790015 147.61735433 212.34910248 145.81793213 210.5503006 C144.93268132 209.66535834 144.04743051 208.78041608 143.13535392 207.8686574 C136.90835698 201.64338463 130.68367829 195.41579965 124.4598999 189.18730927 C116.87289778 181.59468908 109.28232432 174.0056609 101.68719721 166.42116806 C97.81498813 162.55420273 93.94437226 158.68567863 90.07810211 154.81277466 C86.53439581 151.26308015 82.98605295 147.71808833 79.43405938 144.17668703 C78.15453775 142.89938724 76.87667248 141.62042543 75.60070205 140.33957812 C68.37788038 133.09128576 61.06222136 126.32165781 53 120 C51.93864558 119.13198876 50.87848021 118.26251824 49.8203125 117.390625 C40.12275586 109.68879741 29.64910038 103.29573458 19 97 C18.33774414 96.60538574 17.67548828 96.21077148 16.99316406 95.80419922 C-69.43968825 44.93510879 -183.77446176 58.93410224 -272.53125 129.71875 Z M330 135 C329.3512793 135.61617188 328.70255859 136.23234375 328.03417969 136.8671875 C317.57963735 146.84145156 308.33341463 157.19267638 300 169 C299.54544434 169.64179199 299.09088867 170.28358398 298.62255859 170.94482422 C289.87809933 183.40800689 282.5397507 196.57322657 275.875 210.25 C275.4720874 211.06049805 275.0691748 211.87099609 274.65405273 212.70605469 C274.29126221 213.46821289 273.92847168 214.23037109 273.5546875 215.015625 C273.06718018 216.02544434 273.06718018 216.02544434 272.56982422 217.05566406 C271.82351154 219.60220827 272.02957859 220.5075055 273 223 C274.73100689 225.00440045 276.46010522 226.83910317 278.34594727 228.68652344 C278.90204681 229.24306107 279.45814636 229.79959869 280.03109741 230.3730011 C281.86917828 232.20899358 283.71765332 234.03413439 285.56640625 235.859375 C286.84358386 237.13095686 288.12010031 238.40320311 289.39598083 239.67608643 C292.75463882 243.02329412 296.12220864 246.36139483 299.49169922 249.69769287 C302.92891931 253.10421627 306.35765477 256.51925585 309.78710938 259.93359375 C316.51645209 266.63076904 323.25523812 273.31835621 330 280 C331.37293447 277.31556044 332.43203988 274.81323474 333.2265625 271.90234375 C341.74483179 241.62953569 355.94843888 215.54710182 378 193 C378.7115625 192.2265625 379.423125 191.453125 380.15625 190.65625 C408.57235677 160.49145974 452.87121955 142.63913841 493.84521484 140.87768555 C542.15536608 139.58079503 588.90470621 153.8283146 624.484375 187.52734375 C626.20146043 189.21510008 627.90943768 190.91216054 629.609375 192.6171875 C630.97196986 193.97532943 632.35219592 195.31743975 633.78125 196.60546875 C645.78999323 207.65897104 654.58883766 222.59724514 662 237 C662.31130859 237.59280762 662.62261719 238.18561523 662.94335938 238.79638672 C673.83651688 259.75235977 680.31224014 284.37694385 681 308 C681.02046387 308.66999023 681.04092773 309.33998047 681.06201172 310.03027344 C681.9378232 343.28215737 674.80940116 374.71040617 659 404 C658.45859375 405.02222656 657.9171875 406.04445313 657.359375 407.09765625 C654.07995595 413.0117542 650.32356189 418.50449977 646.3125 423.9375 C645.64589355 424.84918945 645.64589355 424.84918945 644.96582031 425.77929688 C635.60151789 438.17455708 624.12441544 449.01654235 613.14355469 459.95410156 C611.69330272 461.40242925 610.24328203 462.85098855 608.79347229 464.29975891 C605.69956862 467.39052867 602.60412587 470.47974528 599.50743866 473.56772614 C594.61417172 478.44737171 589.72481039 483.3309184 584.83599854 488.21502686 C574.47697763 498.5630027 564.11369129 508.90670196 553.75 519.25 C542.51781815 530.46014371 531.28639283 541.67103971 520.05980039 552.88678145 C515.19482905 557.74676056 510.32742833 562.60428962 505.45817423 567.45997763 C502.44439536 570.46633142 499.43265904 573.47472487 496.42149162 576.48369408 C495.01943714 577.88386708 493.61651394 579.28317078 492.21268654 580.68156624 C490.30615209 582.58095106 488.40266206 584.48333396 486.49993896 586.38653564 C485.936155 586.94672465 485.37237104 587.50691365 484.79150271 588.08407807 C482.18114118 590.18851432 482.18114118 590.18851432 481 593 C482.39400024 592.98428955 482.39400024 592.98428955 483.81616211 592.96826172 C548.8549938 592.33490977 548.8549938 592.33490977 569.31252289 599.84944439 C572.41150028 600.80488082 574.75158101 601.20473927 578 601 C582.58921771 598.35181164 586.02962748 594.637216 589.66259766 590.8449707 C590.77983314 589.72734206 591.89992448 588.6125621 593.02262878 587.50042725 C596.05864974 584.47666697 599.05281347 581.4143318 602.04079485 578.34318948 C605.18342367 575.1265096 608.36231213 571.94606079 611.53720093 568.76127625 C616.86932084 563.40248686 622.17724141 558.02070899 627.46875 552.62182617 C634.90263185 545.03717094 642.37850979 537.49503402 649.86365056 529.96100867 C655.70115296 524.08238853 661.52751738 518.19273016 667.3515625 512.30078125 C667.97073941 511.67452732 668.58991632 511.0482734 669.22785616 510.40304208 C672.80755667 506.78081144 676.38134345 503.15290461 679.94709206 499.51693726 C681.02216442 498.42186434 682.09873645 497.32826108 683.17701912 496.23634911 C689.87091807 489.45427563 696.08212065 482.46973909 702 475 C702.86869574 473.93920575 703.73827695 472.87913492 704.609375 471.8203125 C712.31120259 462.12275586 718.70426542 451.64910038 725 441 C725.39461426 440.33774414 725.78922852 439.67548828 726.19580078 438.99316406 C745.84868575 405.60049104 755.72875227 364.53469694 757 326 C757.061875 324.18628906 757.061875 324.18628906 757.125 322.3359375 C758.17101607 259.1827175 735.47089028 195.85762289 692.28125 149.46875 C690.38769392 147.41955918 688.5940214 145.3325972 686.8125 143.1875 C659.43293464 111.91480297 620.23198471 89.52842166 581 77 C580.15421387 76.72913574 579.30842773 76.45827148 578.43701172 76.17919922 C494.11781462 49.62386693 397.61470867 70.98972522 330 135 Z M442 244 C441.19433594 244.65226562 440.38867188 245.30453125 439.55859375 245.9765625 C421.5014101 261.0666033 410.634227 283.80416784 408 307 C406.39225112 333.51531777 412.31252269 358.04043813 429.33203125 378.8515625 C433.16552675 383.17485726 437.22363964 387.25653499 441.3359375 391.3125 C444.38378627 394.40327621 447.18078009 397.70173296 450 401 C450.825 401.94746094 451.65 402.89492188 452.5 403.87109375 C468.26268649 422.08878808 481.16901699 442.06330057 493 463 C497.20614348 461.35897576 500.0067397 458.25281469 503.11035156 455.10083008 C503.71256027 454.49730713 504.31476898 453.89378418 504.93522644 453.27197266 C506.92499478 451.27571448 508.90769065 449.27257593 510.890625 447.26953125 C512.27770736 445.87617444 513.66530883 444.48333423 515.05340576 443.09098816 C518.71078161 439.42030426 522.36255974 435.74410584 526.01275635 432.06628418 C531.83938287 426.19657989 537.67260581 420.33345196 543.50926971 414.47373009 C545.53891566 412.43393662 547.56506686 410.39071995 549.59088135 408.34712219 C560.74139121 397.12434606 560.74139121 397.12434606 566.45527649 392.32159424 C584.54012644 376.84903017 597.32797815 353.67317608 600 330 C600.62056374 316.86633155 601.01947476 303.63698505 597 291 C596.70996094 290.06849121 596.70996094 290.06849121 596.4140625 289.11816406 C588.42279633 264.04679968 571.78957674 244.27795117 548.54296875 231.78515625 C536.12251852 225.52700216 522.9080786 221.75433647 509 221 C508.32195312 220.95875 507.64390625 220.9175 506.9453125 220.875 C483.50611891 220.1674017 459.49548051 228.38864816 442 244 Z M138 548 C136.77990234 549.00160156 136.77990234 549.00160156 135.53515625 550.0234375 C125.75445484 558.37244919 118.58928514 568.46188507 113 580 C112.55914063 580.91007813 112.11828125 581.82015625 111.6640625 582.7578125 C101.33124579 605.74050179 100.82428519 631.64880882 109.16796875 655.3125 C113.5510464 666.43331838 119.30722396 675.88503007 127 685 C127.763125 686.010625 128.52625 687.02125 129.3125 688.0625 C144.32732517 704.4740531 167.43672522 716.76246626 189.7980957 718.17700195 C218.44073387 718.78693681 243.15271435 713.4579418 264.65454102 693.25 C266.1144266 691.84508321 267.55747547 690.42273682 269 689 C269.80566406 688.20722656 270.61132812 687.41445313 271.44140625 686.59765625 C288.89272132 668.35723824 296.55454876 644.00220436 296.3515625 619.12792969 C295.76395039 595.53367107 286.67037307 572.79935081 270 556 C269.175 555.13375 268.35 554.2675 267.5 553.375 C266.675 552.59125 265.85 551.8075 265 551 C264.10474609 550.11248047 264.10474609 550.11248047 263.19140625 549.20703125 C244.17018357 531.1630457 218.89467792 525.10123668 193.37890625 525.6484375 C173.0367968 526.48511547 153.48099226 534.9151961 138 548 Z M-203.59551716 665.75908613 C-206.73023402 669.05283913 -209.94172658 672.27007581 -213.1449585 675.49697876 C-218.51490448 680.927436 -223.83378623 686.40374842 -229.11865234 691.91699219 C-236.53350695 699.65222359 -244.03149053 707.30243069 -251.55059671 714.93618083 C-261.65896069 725.20693895 -271.74068082 735.50534693 -281.72759438 745.89435005 C-282.79800691 747.00645312 -283.87047969 748.11657819 -284.94535637 749.22436714 C-300.57341427 765.34502714 -313.93137353 783.47455454 -325 803 C-325.37511719 803.65838867 -325.75023437 804.31677734 -326.13671875 804.99511719 C-332.49307312 816.2597486 -337.52423531 827.87329341 -342 840 C-342.41958984 841.13091064 -342.41958984 841.13091064 -342.84765625 842.28466797 C-365.26514661 903.59433815 -360.73754157 972.87560914 -334 1032 C-323.08602381 1055.2580081 -309.1103032 1076.5642901 -291.51171875 1095.30078125 C-289.47639148 1097.48804586 -287.53878948 1099.70817803 -285.625 1102 C-245.37009843 1148.18317686 -181.5088988 1173.89517461 -121.62939453 1178.484375 C-60.89916957 1182.60638081 1.00795609 1164.767138 49 1127 C49.969375 1126.24203125 50.93875 1125.4840625 51.9375 1124.703125 C66.98872662 1112.64504004 81.11676486 1099.20292894 93 1084 C93.76570313 1083.06285156 94.53140625 1082.12570312 95.3203125 1081.16015625 C106.88696676 1066.71113638 116.07293271 1050.68178661 124 1034 C124.37495605 1033.32404785 124.74991211 1032.6480957 125.13623047 1031.95166016 C125.51279785 1031.26249512 125.88936523 1030.57333008 126.27734375 1029.86328125 C126.62917725 1029.24364502 126.98101074 1028.62400879 127.34350586 1027.9855957 C128.26645763 1025.19408707 127.89903708 1023.81313929 127 1021 C125.27338982 1018.90979096 123.58604945 1017.07946505 121.65405273 1015.19995117 C120.81990341 1014.36492569 120.81990341 1014.36492569 119.96890259 1013.51303101 C118.13312351 1011.68003295 116.28359662 1009.86160066 114.43359375 1008.04296875 C113.15619849 1006.77303576 111.87968499 1005.50221526 110.60401917 1004.23054504 C107.24753954 1000.88932257 103.87922091 997.56028722 100.50830078 994.23364258 C97.06927038 990.83556267 93.64156496 987.42610143 90.21289062 984.01757812 C83.48629994 977.33385979 76.74714803 970.66296081 70 964 C68.61996352 966.69689902 67.56502134 969.20616792 66.7734375 972.1328125 C63.4696487 983.94929211 59.38902017 994.97770541 54 1006 C53.67773438 1006.66370605 53.35546875 1007.32741211 53.0234375 1008.01123047 C35.63419136 1043.36406269 5.4725549 1070.53125086 -30 1087 C-31.11632812 1087.53367187 -32.23265625 1088.06734375 -33.3828125 1088.6171875 C-75.412495 1107.79385115 -124.72103753 1107.22164348 -167.75 1091.8125 C-188.47840354 1083.9804864 -206.18751584 1072.25058181 -223 1058 C-223.72960937 1057.39414063 -224.45921875 1056.78828125 -225.2109375 1056.1640625 C-229.96521112 1052.13841319 -234.05408418 1047.81495681 -238 1043 C-238.8353125 1041.99066406 -239.670625 1040.98132812 -240.53125 1039.94140625 C-271.12035866 1002.39725436 -284.96941227 955.39814099 -280.53515625 907.25 C-278.16726384 886.06160814 -272.20032502 866.18970708 -263 847 C-262.66210449 846.29375488 -262.32420898 845.58750977 -261.97607422 844.85986328 C-251.49035857 823.32940279 -235.43729429 806.12170218 -218.61450195 789.38745117 C-217.09522712 787.86874183 -215.5763952 786.3495893 -214.05796814 784.83003235 C-209.97230454 780.74379959 -205.88054477 776.66372283 -201.78758645 772.58479857 C-197.49720793 768.30700081 -193.21256752 764.02346326 -188.92729187 759.74055481 C-180.82849818 751.64795443 -172.72462404 743.5604618 -164.61887091 735.47483283 C-155.38385679 726.2622449 -146.15458354 717.04391473 -136.92576659 707.82511938 C-117.95685141 688.87705748 -98.98080804 669.93614794 -80 651 C-82.52791039 649.7360448 -84.0372034 649.986945 -86.85546875 650.15625 C-87.85835938 650.21006836 -88.86125 650.26388672 -89.89453125 650.31933594 C-91.52455078 650.40876465 -91.52455078 650.40876465 -93.1875 650.5 C-109.77127689 651.26547823 -126.01195435 650.60267374 -142.5 648.6875 C-143.41072266 648.58211914 -144.32144531 648.47673828 -145.25976562 648.36816406 C-146.19498047 648.25053711 -147.13019531 648.13291016 -148.09375 648.01171875 C-149.08103088 647.91184158 -150.06831177 647.81196442 -151.08551025 647.70906067 C-154.33076451 647.12122361 -156.72427525 646.36414253 -159.74053955 645.15745544 C-180.21640847 637.94478088 -190.62460811 652.00953281 -203.59551716 665.75908613 Z M18.21972656 627.78515625 C17.03862305 628.20667969 15.85751953 628.62820313 14.640625 629.0625 C13.29803204 629.53208075 11.95516451 630.00087699 10.61206055 630.46899414 C9.90125336 630.71908234 9.19044617 630.96917053 8.45809937 631.22683716 C-11.18277759 638.1040622 -31.05484488 643.42476222 -51.66088867 646.56811523 C-54.01189563 646.8903722 -54.01189563 646.8903722 -56 648 C-40.30340675 708.54150686 -18.23210036 761.1735401 26.56684875 805.82754517 C27.90734356 807.17106768 29.24740551 808.51502219 30.58707684 809.85936582 C34.23624672 813.51874425 37.89154214 817.17194769 41.54796684 820.82407522 C45.50326246 824.7768906 49.45279064 828.73546191 53.40310669 832.69325256 C61.12969158 840.43254977 68.86170755 848.16639851 76.59582344 855.89816906 C82.88470167 862.18526036 89.17180311 868.4741232 95.45766258 874.76423264 C96.35412248 875.66128772 97.25058237 876.5583428 98.17420771 877.48258137 C99.99565676 879.30524223 101.81710464 881.12790424 103.63855138 882.95056741 C115.8571883 895.17698411 128.07774769 907.40147525 140.30228901 919.6219883 C140.77953936 920.09908227 141.25678971 920.57617625 141.74850219 921.06772761 C144.1669941 923.48541383 146.58550605 925.90308001 149.00402603 928.32073815 C149.48428892 928.80082995 149.96455181 929.28092176 150.45936813 929.7755618 C151.43057386 930.74642088 152.40178054 931.71727902 153.37298815 932.68813623 C168.4858873 947.79567787 183.59212523 962.90985154 198.69311523 978.02929688 C215.68775189 995.04467917 232.68741944 1012.055008 249.69442433 1029.05803049 C258.68880269 1038.05049932 267.68098251 1047.04514011 276.66732216 1056.04564285 C284.31605939 1063.7063136 291.97006045 1071.36167756 299.63080803 1079.01033856 C303.53504194 1082.90869818 307.43687638 1086.80937877 311.33215523 1090.71668816 C314.90531167 1094.30075142 318.48545383 1097.87768536 322.07104053 1101.44931178 C323.35956113 1102.73519867 324.64561509 1104.02356365 325.92878393 1105.31479104 C342.31991209 1121.80160602 360.83735275 1135.46097508 381 1147 C382.12277344 1147.65613281 383.24554687 1148.31226563 384.40234375 1148.98828125 C440.91557147 1180.70942932 510.33899851 1186.74871518 572.375 1169.875 C609.72120964 1159.22537029 644.08007181 1140.49907061 672.6484375 1114.1640625 C674.21719481 1112.72038883 675.80606886 1111.29827663 677.4140625 1109.8984375 C705.49975523 1085.37918194 726.99562565 1051.75677922 740 1017 C740.33483398 1016.10651855 740.66966797 1015.21303711 741.01464844 1014.29248047 C748.82091327 993.0689689 754.45388421 970.61817774 756 948 C756.06026367 947.14164551 756.12052734 946.28329102 756.18261719 945.39892578 C760.53773856 879.30016567 740.47659708 813.40064772 697 763 C696.36578125 762.25492188 695.7315625 761.50984375 695.078125 760.7421875 C683.76414059 747.80565494 671.56969232 735.35784396 657.66357422 725.21484375 C655.99218631 723.99429397 654.34162497 722.74897191 652.69140625 721.5 C610.05359601 689.67981284 557.30297073 673.46440176 504.375 673.6875 C502.98970093 673.69073273 502.98970093 673.69073273 501.57641602 673.69403076 C487.52570301 673.74655849 473.81371168 674.2174175 460 677 C458.97100586 677.20399414 457.94201172 677.40798828 456.88183594 677.61816406 C434.49911241 682.17429179 413.53675139 689.01303408 393 699 C392.20352051 699.38526855 391.40704102 699.77053711 390.58642578 700.16748047 C365.63090622 712.38322001 343.25694362 729.33282605 323.875 749.1875 C291.62100049 781.77747867 245.82823329 798.77067106 200.4375 799.1875 C151.62500295 799.05414654 107.25331202 779.47275951 72.375 745.6875 C42.53077805 715.10691844 25.21635466 673.2112508 23.34375 630.703125 C23.2303125 629.81109375 23.116875 628.9190625 23 628 C20.92798239 626.68338184 20.92798239 626.68338184 18.21972656 627.78515625 Z M-98.13476562 782.99432373 C-98.80468033 783.65852829 -99.47459503 784.32273285 -100.16481018 785.00706482 C-100.90448532 785.7456221 -101.64416046 786.48417938 -102.40625 787.24511719 C-103.18197861 788.01588089 -103.95770721 788.78664459 -104.75694275 789.58076477 C-107.34081592 792.14995187 -109.92070675 794.72309042 -112.5 797.296875 C-114.29304692 799.0841707 -116.08609709 800.87146314 -117.87915039 802.65875244 C-121.16781162 805.93823044 -124.45502129 809.2191507 -127.74060535 812.50171065 C-132.55476755 817.31141694 -137.37534085 822.11456834 -142.20181465 826.91191936 C-146.39390289 831.07960172 -150.57753833 835.25568991 -154.75830078 839.43473053 C-156.52905379 841.20247318 -158.30228805 842.96773421 -160.078125 844.73036957 C-183.5108873 868.00149075 -200.35269742 892.20523797 -201.3125 926.25 C-201.24667066 927.83539006 -201.13874297 929.41932118 -201 931 C-200.9071875 932.11117187 -200.814375 933.22234375 -200.71875 934.3671875 C-198.06668718 958.89876854 -187.00979096 982.82556769 -168 999 C-144.45283717 1017.58986539 -118.32878371 1025.04053298 -88.40625 1021.71142578 C-68.75813525 1018.62066449 -51.19539253 1008.62757683 -37 995 C-36.2884375 994.34 -35.576875 993.68 -34.84375 993 C-22.26486409 981.00167806 -14.1710997 964.75025829 -10 948 C-9.77570313 947.17113281 -9.55140625 946.34226562 -9.3203125 945.48828125 C-3.81434283 921.46566017 -9.60547432 895.1976521 -22.27124023 874.43334961 C-26.28360986 868.21003219 -31.18261341 862.95275718 -36.35253906 857.68310547 C-45.39220164 848.44786039 -53.91301708 838.97302794 -61.72070312 828.67333984 C-62.96670139 827.04355509 -64.23602849 825.43551939 -65.515625 823.83203125 C-75.13865943 811.70700787 -83.23739927 798.60372186 -90.91601562 785.18066406 C-91.91861797 783.4389109 -92.95560529 781.71701928 -94 780 C-95.82192349 780 -96.90756626 781.77336763 -98.13476562 782.99432373 Z " fill="#22B21A" transform="translate(440,18)"/>
<path d="M0 0 C1.00347473 0.00273422 1.00347473 0.00273422 2.02722168 0.00552368 C48.26403185 0.2160401 90.05751297 18.15368378 123.875 49.3125 C124.79023437 50.15554688 125.70546875 50.99859375 126.6484375 51.8671875 C150.46666729 74.78378083 165.91890738 105.29967529 173.6875 137.125 C173.88255127 137.92341309 174.07760254 138.72182617 174.27856445 139.54443359 C177.15348339 152.07639168 178.24366474 164.59937906 178.1875 177.4375 C178.18476578 178.44097473 178.18476578 178.44097473 178.18197632 179.46472168 C177.95814776 228.62534677 157.59746223 273.1474589 122.91601562 307.57177734 C87.69368672 341.64824502 40.79892635 356.32462869 -7.46484375 355.5625 C-60.39116973 354.25873535 -102.08312048 327.71180686 -138.38989258 291.30639648 C-140.08595792 289.61304659 -141.78244725 287.92012128 -143.47932434 286.22758484 C-148.0491848 281.66677711 -152.61277541 277.09974514 -157.17492509 272.53122592 C-160.02623771 269.67634082 -162.8796805 266.82359162 -165.73370934 263.9714222 C-166.2093101 263.4961279 -166.68491086 263.0208336 -167.17492377 262.53113644 C-168.14134339 261.56535633 -169.10776746 260.59958069 -170.07419594 259.63380945 C-179.097077 250.61660739 -188.11385896 241.59332668 -197.12850835 232.56789631 C-204.86514952 224.82228994 -212.60706371 217.08198652 -220.3527832 209.34545898 C-229.36575621 200.3431769 -238.37549268 191.33767602 -247.38004607 182.32697159 C-248.3386584 181.36772218 -249.2972749 180.40847694 -250.25589561 179.44923592 C-250.72748774 178.97733524 -251.19907987 178.50543456 -251.68496266 178.01923386 C-255.0110141 174.69145432 -258.339383 171.36600352 -261.66864967 168.04144096 C-266.13754029 163.57830369 -270.60155593 159.11034842 -275.06176567 154.63853645 C-276.70322339 152.99442308 -278.34640603 151.35202989 -279.99138641 149.71144104 C-282.22645853 147.48178914 -284.45534995 145.24614227 -286.68269348 143.0087738 C-287.67325681 142.02490264 -287.67325681 142.02490264 -288.68383151 141.0211553 C-293.125 136.54080252 -293.125 136.54080252 -293.125 134.3125 C-291.91368408 133.93552979 -290.70236816 133.55855957 -289.4543457 133.17016602 C-288.64597763 132.91859238 -287.83760956 132.66701874 -287.00474548 132.40782166 C-285.17344362 131.83795998 -283.34211342 131.26818934 -281.51075745 130.69850159 C-276.41238338 129.11244572 -271.3144436 127.52501717 -266.21728516 125.93505859 C-257.26996678 123.14569645 -248.32339352 120.35690734 -239.34765625 117.66015625 C-204.66916636 107.20354589 -171.99633579 91.7875914 -144.125 68.3125 C-143.59696777 67.87325195 -143.06893555 67.43400391 -142.52490234 66.98144531 C-136.30349072 61.80015128 -130.26473917 56.56416409 -124.625 50.75 C-92.20707628 17.76334078 -45.92098688 -0.20089704 0 0 Z M-69.46484375 111.64453125 C-71.8372849 114.02813683 -74.37582217 116.19618247 -76.92578125 118.38671875 C-78.46811172 119.73728521 -79.984475 121.1178124 -81.48046875 122.51953125 C-100.46886273 140.30140095 -122.58023303 154.48887108 -145.125 167.3125 C-143.79672132 170.25606318 -142.35105563 172.3372562 -140.07325745 174.61820984 C-139.44692917 175.25017776 -138.82060089 175.88214569 -138.17529297 176.53326416 C-137.48910889 177.21539978 -136.8029248 177.8975354 -136.09594727 178.6003418 C-135.37205307 179.32774063 -134.64815887 180.05513947 -133.90232849 180.80458069 C-131.50370047 183.21202125 -129.09781608 185.61205844 -126.69140625 188.01171875 C-125.01638523 189.68808758 -123.34166114 191.36475316 -121.66722107 193.04170227 C-118.15061588 196.56125893 -114.63041285 200.07716705 -111.10766602 203.59057617 C-106.6156757 208.07123355 -102.13264138 212.56072645 -97.65232944 217.05305767 C-94.19076141 220.52189631 -90.72438966 223.98590331 -87.25660515 227.44852638 C-85.6035109 229.10029526 -83.9518766 230.7535267 -82.30179024 232.4083004 C-59.00337031 255.75831441 -34.73237101 274.42292476 -0.1875 274.5625 C27.29920439 274.52004012 51.37060495 263.48753007 70.875 244.3125 C73.84568924 241.14693355 76.42452127 237.89313299 78.875 234.3125 C79.54917969 233.32894531 80.22335937 232.34539062 80.91796875 231.33203125 C95.28254681 209.20572996 100.13782546 183.27614135 94.84375 157.44140625 C91.27728164 141.55809519 83.85734221 126.36629024 72.875 114.3125 C71.99070312 113.33539062 71.10640625 112.35828125 70.1953125 111.3515625 C63.21532741 103.89202746 55.71522072 98.38426092 46.875 93.3125 C45.92238281 92.74789062 44.96976563 92.18328125 43.98828125 91.6015625 C6.48503441 70.99308376 -40.60585675 81.83040047 -69.46484375 111.64453125 Z " fill="#22B21A" transform="translate(944.125,766.6875)"/>
<path d="M0 0 C0.81710449 0.19867676 1.63420898 0.39735352 2.47607422 0.60205078 C42.88749444 10.6803706 72.2345991 31.8969405 101.26489258 61.00610352 C102.96095792 62.69945341 104.65744725 64.39237872 106.35432434 66.08491516 C110.9241848 70.64572289 115.48777541 75.21275486 120.04992509 79.78127408 C122.90123771 82.63615918 125.7546805 85.48890838 128.60870934 88.3410778 C129.0843101 88.8163721 129.55991086 89.2916664 130.04992377 89.78136356 C131.01634339 90.74714367 131.98276746 91.71291931 132.94919594 92.67869055 C141.972077 101.69589261 150.98885896 110.71917332 160.00350835 119.74460369 C167.74014952 127.49021006 175.48206371 135.23051348 183.2277832 142.96704102 C192.24075621 151.9693231 201.25049268 160.97482398 210.25504607 169.98552841 C211.2136584 170.94477782 212.1722749 171.90402306 213.13089561 172.86326408 C213.8382838 173.5711151 213.8382838 173.5711151 214.55996266 174.29326614 C217.8860141 177.62104568 221.214383 180.94649648 224.54364967 184.27105904 C229.01254029 188.73419631 233.47655593 193.20215158 237.93676567 197.67396355 C239.57822339 199.31807692 241.22140603 200.96047011 242.86638641 202.60105896 C245.10145853 204.83071086 247.33034995 207.06635773 249.55769348 209.3037262 C250.54825681 210.28759736 250.54825681 210.28759736 251.55883151 211.2913447 C256 215.77169748 256 215.77169748 256 218 C255.16602188 218.25341156 254.33204376 218.50682312 253.47279358 218.76791382 C245.48636206 221.19680795 237.50329858 223.63643577 229.52355289 226.0872097 C225.42421168 227.34583029 221.32381995 228.60073247 217.22045898 229.84619141 C169.74707073 244.26375359 125.04984123 262.98597388 89.80859375 299.1796875 C86.69988277 302.30854131 83.3588706 305.14525308 80 308 C78.69095703 309.14275391 78.69095703 309.14275391 77.35546875 310.30859375 C40.86697842 341.61933311 -6.22160572 355.40784834 -53.98339844 351.77294922 C-95.5032216 347.78687747 -131.48795679 329.93932542 -162 302 C-162.76699219 301.30519531 -163.53398437 300.61039062 -164.32421875 299.89453125 C-170.61385456 293.9110846 -175.78756926 286.91440714 -181 280 C-181.64066406 279.154375 -182.28132813 278.30875 -182.94140625 277.4375 C-210.03097917 240.22862026 -219.9417441 193.18172133 -214.22436523 147.84350586 C-213.64820121 144.18480389 -212.86836823 140.59932337 -212 137 C-211.80664062 136.154375 -211.61328125 135.30875 -211.4140625 134.4375 C-204.3337876 104.01854119 -190.17219484 76.8888122 -168.8828125 54.03515625 C-167.31538562 52.34090437 -165.86510793 50.62300939 -164.4375 48.8125 C-143.54968941 24.71118009 -110.51912511 8.39184039 -80 1 C-79.13584473 0.78972168 -78.27168945 0.57944336 -77.38134766 0.36279297 C-53.23357128 -5.20570102 -24.17767723 -6.04034899 0 0 Z M-103 103 C-103.77859375 103.69738281 -104.5571875 104.39476562 -105.359375 105.11328125 C-122.33774955 121.12564483 -133.41657776 145.13000507 -134.203125 168.49609375 C-134.65051565 196.52879926 -126.25020172 221.85771765 -106.65917969 242.36132812 C-92.17671921 256.66478232 -73.21875169 266.89252719 -53 270 C-52.30261719 270.10957031 -51.60523438 270.21914063 -50.88671875 270.33203125 C-25.55241749 273.70693817 -0.95198876 266.68402624 19.7421875 252.0625 C25.12752367 247.90186645 29.8861096 243.22151532 34.64453125 238.3671875 C37.94403052 235.05127281 41.43543304 232.0248614 45 229 C45.8971875 228.21367187 46.794375 227.42734375 47.71875 226.6171875 C66.13887852 210.57654978 86.51988848 196.61626122 108 185 C106.6527902 182.00151792 105.15677832 179.90449357 102.84109497 177.58039856 C102.19096939 176.92318817 101.54084381 176.26597778 100.87101746 175.58885193 C100.1583522 174.87866409 99.44568695 174.16847626 98.71142578 173.43676758 C97.95987717 172.68010803 97.20832855 171.92344849 96.43400574 171.14385986 C93.94294173 168.63887637 91.44449515 166.14141322 88.9453125 163.64453125 C87.20549869 161.90082912 85.46590843 160.15690391 83.72653198 158.4127655 C80.07305005 154.75181432 76.41570686 151.09477265 72.75585938 147.44018555 C68.0895649 142.7796578 63.43467006 138.10793082 58.78291512 133.43289661 C55.18827359 129.82343868 51.58663818 126.22102186 47.98302841 122.62051964 C46.26567274 120.90265377 44.55065075 119.18245135 42.83810806 117.45978737 C19.74482212 94.24691239 -3.89199532 78.06917784 -37.75 77.6875 C-62.06256945 77.7785157 -85.02755136 86.58177255 -103 103 Z " fill="#22B21A" transform="translate(373,161)"/>
</svg>
